<svg id="Capa_1" enable-background="new 0 0 512 512" height="512" viewBox="0 0 512 512" width="512" xmlns="http://www.w3.org/2000/svg"><g><path d="m286 299.333c-10.076 0-19.52 2.736-27.65 7.486-7.133-22.109-27.899-38.153-52.35-38.153s-45.218 16.043-52.35 38.153c-8.13-4.75-17.574-7.486-27.65-7.486-30.327 0-55 24.673-55 55 0 27.5 20.288 50.35 46.682 54.371-4.303 10.827-6.682 22.62-6.682 34.962 0 32.685 17.026 48.731 31.31 56.437 15.044 8.117 35.282 11.897 63.69 11.897s48.646-3.78 63.69-11.897c14.283-7.706 31.31-23.752 31.31-56.437 0-12.344-2.386-24.134-6.691-34.961 26.399-4.017 46.691-26.868 46.691-54.372 0-30.327-24.673-55-55-55zm-80-.666c13.785 0 25 11.215 25 25s-11.215 25-25 25-25-11.215-25-25 11.215-25 25-25zm-105 55.666c0-13.785 11.215-25 25-25s25 11.215 25 25-11.215 25-25 25-25-11.214-25-25zm105 127.667c-54.126 0-65-14.667-65-38.333 0-35.841 29.159-65 65-65s65 29.159 65 65c0 23.666-10.874 38.333-65 38.333zm80-102.667c-13.785 0-25-11.215-25-25s11.215-25 25-25 25 11.215 25 25-11.215 25-25 25z"/><path d="m109.99 258.913c19.353-11.173 28.413-33.419 23.811-54.162l99.243-57.298c15.663 14.357 39.456 17.633 58.811 6.46 23.876-13.785 32.086-44.425 18.301-68.301-6.678-11.567-17.602-19.685-30.015-23.085 3.26-12.45 1.692-25.97-4.985-37.536-13.784-23.877-44.424-32.087-68.301-18.303-19.353 11.173-28.413 33.419-23.811 54.162l-99.225 57.288c-5.86-5.393-12.975-9.325-20.888-11.445-12.899-3.457-26.375-1.683-37.941 4.995-23.876 13.786-32.086 44.425-18.301 68.302 6.679 11.567 17.602 19.684 30.015 23.085-3.26 12.45-1.692 25.97 4.985 37.536 9.251 16.023 26.091 24.991 43.385 24.99 8.477.001 17.063-2.154 24.916-6.688zm-42.321-33.302c-4.179-7.239-3.292-16.439 2.207-22.893 4.117-4.832 4.746-11.731 1.572-17.229l-2.144-3.712c-2.712-4.697-7.698-7.5-12.986-7.5-.901 0-1.811.082-2.719.249-8.341 1.533-16.75-2.297-20.93-9.536-5.514-9.55-2.23-21.807 7.321-27.321 4.626-2.671 10.017-3.381 15.176-1.998 5.16 1.383 9.473 4.692 12.144 9.319 1.989 3.445 5.266 5.959 9.108 6.989s7.937.491 11.382-1.499l121.244-70c3.445-1.989 5.959-5.265 6.989-9.108s.491-7.937-1.499-11.382c-5.514-9.551-2.23-21.807 7.32-27.321 4.627-2.671 10.017-3.381 15.176-1.998 5.16 1.383 9.473 4.692 12.145 9.319 4.179 7.239 3.292 16.439-2.207 22.894-4.116 4.831-4.746 11.73-1.573 17.227l2.143 3.712c3.173 5.497 9.458 8.401 15.707 7.253 8.341-1.533 16.75 2.298 20.93 9.536 5.514 9.551 2.23 21.807-7.321 27.321-4.627 2.67-10.015 3.38-15.176 1.998-5.16-1.383-9.473-4.692-12.144-9.319-4.142-7.174-13.316-9.632-20.49-5.49l-121.244 70c-3.445 1.989-5.959 5.265-6.989 9.108s-.491 7.937 1.499 11.382c2.671 4.626 3.38 10.016 1.998 15.177-1.383 5.16-4.692 9.473-9.318 12.144-4.627 2.672-10.017 3.38-15.176 1.998-5.16-1.384-9.473-4.693-12.145-9.32z"/><path d="m480.389 331.149c16.077-24.613 31.611-58.009 31.611-95.149 0-77.608-67.136-138.616-69.994-141.175-5.696-5.101-14.316-5.101-20.013 0-2.857 2.559-69.993 63.567-69.993 141.175 0 37.14 15.534 70.536 31.611 95.149-13.381 10.71-21.611 27.126-21.611 44.899v29.952c0 8.284 6.716 15 15 15h6.459c18.574 0 35.829-7.259 48.541-19.785 12.712 12.526 29.967 19.785 48.541 19.785h6.459c8.284 0 15-6.716 15-15v-29.952c0-17.773-8.23-34.189-21.611-44.899zm-8.389 58.927c-11.418-2.511-21.193-10.004-26.583-20.784-2.542-5.082-7.735-8.292-13.417-8.292s-10.875 3.21-13.417 8.292c-5.39 10.78-15.166 18.273-26.583 20.784v-14.028c0-11.625 7.365-22.034 18.327-25.903 4.507-1.591 7.986-5.234 9.368-9.809 1.381-4.575.5-9.535-2.374-13.354-16.113-21.417-35.321-54.585-35.321-90.982 0-47.7 32.953-89.96 50.021-108.648 17.08 18.638 49.979 60.759 49.979 108.648 0 36.397-19.208 69.565-35.321 90.981-2.874 3.819-3.755 8.779-2.374 13.354 1.382 4.575 4.861 8.218 9.368 9.809 10.962 3.87 18.327 14.279 18.327 25.904z"/></g></svg>